HIERARCHY
ROOT Hips
{
	OFFSET	0.00	0.00	0.00
	CHANNELS 6 Xposition Yposition Zposition Zrotation Xrotation Yrotation
	JOINT LeftUpLeg
	{
		OFFSET	 0.126116	-0.065224	 0.014019
		CHANNELS 3 Zrotation Xrotation Yrotation
		JOINT LeftLeg
		{
			OFFSET	 0.000000	 0.569914	 0.000000
			CHANNELS 3 Zrotation Xrotation Yrotation
			JOINT LeftFoot
			{
				OFFSET	 0.000000	 0.544423	 0.000000
				CHANNELS 3 Zrotation Xrotation Yrotation
				JOINT LeftToeBase
				{
					OFFSET	 0.000000	 0.207117	 0.000000
					CHANNELS 3 Zrotation Xrotation Yrotation
					End Site
					{
						OFFSET	 0.000000	 0.207117	 0.000000
					}
				}
			}
		}
	}
	JOINT RightUpLeg
	{
		OFFSET	-0.124023	-0.065224	 0.008373
		CHANNELS 3 Zrotation Xrotation Yrotation
		JOINT RightLeg
		{
			OFFSET	 0.000000	 0.570047	 0.000000
			CHANNELS 3 Zrotation Xrotation Yrotation
			JOINT RightFoot
			{
				OFFSET	 0.000000	 0.544354	 0.000000
				CHANNELS 3 Zrotation Xrotation Yrotation
				JOINT RightToeBase
				{
					OFFSET	 0.000000	 0.207540	 0.000000
					CHANNELS 3 Zrotation Xrotation Yrotation
					End Site
					{
						OFFSET	 0.000000	 0.207540	 0.000000
					}
				}
			}
		}
	}
	JOINT Spine
	{
		OFFSET	 0.000184	 0.117403	 0.007763
		CHANNELS 3 Zrotation Xrotation Yrotation
		JOINT Spine1
		{
			OFFSET	 0.000000	 0.137269	 0.000000
			CHANNELS 3 Zrotation Xrotation Yrotation
			JOINT Spine2
			{
				OFFSET	 0.000000	 0.156879	 0.000000
				CHANNELS 3 Zrotation Xrotation Yrotation
				JOINT LeftShoulder
				{
					OFFSET	 0.080501	 0.160143	 0.002496
					CHANNELS 3 Zrotation Xrotation Yrotation
					JOINT LeftArm
					{
						OFFSET	 0.000000	 0.164363	 0.000000
						CHANNELS 3 Zrotation Xrotation Yrotation
						JOINT LeftForeArm
						{
							OFFSET	 0.000000	 0.364576	 0.000000
							CHANNELS 3 Zrotation Xrotation Yrotation
							JOINT LeftHand
							{
								OFFSET	 0.000000	 0.360812	 0.000000
								CHANNELS 3 Zrotation Xrotation Yrotation
								JOINT LeftHandIndex1
								{
									OFFSET	 0.000000	 0.086006	 0.000000
									CHANNELS 3 Zrotation Xrotation Yrotation
									JOINT LeftHandIndex2
									{
										OFFSET	 0.000000	 0.047237	 0.000000
										CHANNELS 3 Zrotation Xrotation Yrotation
										JOINT LeftHandIndex3
										{
											OFFSET	-0.004284	 0.038165	 0.000551
											CHANNELS 3 Zrotation Xrotation Yrotation
											End Site
											{
												OFFSET	-0.004284	 0.038165	 0.000551
											}
										}
									}
								}
							}
						}
					}
				}
				JOINT Neck
				{
					OFFSET	 0.000000	 0.176489	 0.000000
					CHANNELS 3 Zrotation Xrotation Yrotation
					JOINT Head
					{
						OFFSET	 0.000000	 0.077941	 0.001747
						CHANNELS 3 Zrotation Xrotation Yrotation
						End Site
						{
							OFFSET	 0.000000	 0.077941	 0.001747
						}
					}
				}
				JOINT RightShoulder
				{
					OFFSET	-0.080363	 0.159706	-0.000306
					CHANNELS 3 Zrotation Xrotation Yrotation
					JOINT RightArm
					{
						OFFSET	 0.000000	 0.164196	 0.000000
						CHANNELS 3 Zrotation Xrotation Yrotation
						JOINT RightForeArm
						{
							OFFSET	 0.000000	 0.365611	 0.000000
							CHANNELS 3 Zrotation Xrotation Yrotation
							JOINT RightHand
							{
								OFFSET	 0.000000	 0.360648	 0.000000
								CHANNELS 3 Zrotation Xrotation Yrotation
								JOINT RightHandIndex1
								{
									OFFSET	 0.000000	 0.069977	 0.000000
									CHANNELS 3 Zrotation Xrotation Yrotation
									JOINT RightHandIndex2
									{
										OFFSET	 0.000000	 0.052305	 0.000000
										CHANNELS 3 Zrotation Xrotation Yrotation
										JOINT RightHandIndex3
										{
											OFFSET	 0.009002	 0.042196	 0.000782
											CHANNELS 3 Zrotation Xrotation Yrotation
											End Site
											{
												OFFSET	 0.009002	 0.042196	 0.000782
											}
										}
									}
								}
							}
						}
					}
				}
			}
		}
	}
}
MOTION
Frames:    13
Frame Time: 0.03333334
-0.067637	 1.240327	-0.043067	 2.332895	-3.123014	-176.717100	-163.101600	 19.513930	-30.577960	 7.043232	-24.729560	 10.250330	 13.004580	 64.110590	-14.623160	 1.149209	 26.515710	-2.654590	 166.736000	 7.293164	 43.805750	-2.436797	-29.300440	 11.190620	 23.252030	 78.426090	-21.266250	-1.405153	 29.878630	 2.761192	-3.539291	 5.976590	 32.939810	-9.233050	 3.837851	 9.036695	 9.309447	-2.549196	-16.462930	-105.570900	 3.342050	 92.737130	 19.232380	 54.168950	 8.301154	 6.835715	-0.258536	-5.382960	 12.731880	 12.670600	 117.388100	 3.025342	 47.629370	-1.552869	-7.385164	 53.741590	 7.039618	 6.355138	 28.715440	 0.062234	 4.079527	-8.580699	-2.125561	 1.082310	-7.185297	-7.102010	 110.678800	 20.939810	-97.791140	 2.363462	 41.811680	-20.271060	-6.750368	-0.193070	 5.362683	 8.484410	-4.890787	-49.234310	-3.232159	 7.188145	 0.300639	 12.893230	 27.144680	-6.216558	-8.531408	 18.258940	-0.853235
-0.054340	 1.240727	-0.036710	 1.574940	-2.538832	-178.979700	-162.623000	 17.554120	-32.908670	 6.452013	-22.883830	 8.903392	 9.423570	 63.597260	-11.476320	 1.149560	 26.520500	-2.654728	 167.199900	 7.188673	 41.733450	-2.346193	-28.383720	 11.022310	 22.730250	 78.006500	-20.558070	-1.353625	 29.215780	 2.738365	-1.996763	 6.359657	 22.783060	-8.447957	 3.552366	 8.265584	 9.004226	-2.375887	-15.613970	-106.146700	 3.647417	 92.730800	 21.992690	 53.500180	 6.542654	 5.041485	-0.258375	-0.195232	 11.803240	 12.793700	 114.120700	 2.392915	 40.735760	-1.110655	-6.646770	 46.657810	 5.678632	 6.111240	 23.038890	 0.047350	 4.034887	-8.296357	-1.823378	 0.693620	-6.927633	-5.602949	 112.105600	 19.706380	-97.688210	 4.825582	 39.374470	-19.386940	-4.902899	-0.191025	 0.173200	 7.731270	 3.024060	-50.692670	-2.915592	 6.108428	 0.505029	 12.725400	 25.284690	-5.745199	-8.522315	 16.124380	-0.716898
-0.039003	 1.240986	-0.028762	 1.142475	-2.071509	 179.283300	-161.928700	 15.808290	-34.690900	 5.784225	-20.734450	 6.947232	 4.707715	 62.587250	-7.066517	 1.150054	 26.527240	-2.654925	 167.949700	 7.313179	 39.975600	-2.278601	-27.689230	 10.698260	 21.899180	 77.494700	-19.241180	-1.348308	 29.146980	 2.736039	-0.334151	 6.477536	 12.551450	-7.788024	 3.397626	 7.639047	 8.742549	-2.394638	-14.868070	-106.821000	 3.950333	 92.731360	 32.790300	 48.845380	-1.288560	 6.751745	-0.257620	 5.063103	 10.055470	 15.596740	 105.709800	 1.698594	 31.250450	-0.700802	-6.094439	 36.835250	 4.210632	 5.785291	 15.203430	-0.013415	 3.975328	-8.137545	-1.552239	 0.383989	-6.841129	-4.338990	 113.579300	 18.491510	-97.571010	 4.330193	 39.158400	-16.680050	-6.735454	-0.195077	-5.083659	 5.959261	 10.525860	-51.206940	-2.714443	 5.402578	 0.648731	 12.625670	 24.062540	-5.442715	-8.514387	 14.844620	-0.635670
-0.025729	 1.240963	-0.020835	 0.812731	-1.649922	 177.733900	-161.404400	 14.193050	-36.234860	 5.146484	-18.652420	 5.028891	 0.566174	 61.456000	-3.081273	 1.150502	 26.533350	-2.655102	 168.528800	 7.600863	 38.394430	-2.251416	-27.407480	 10.380700	 21.364650	 77.143970	-18.203370	-1.343489	 29.084550	 2.733936	 1.155735	 6.264009	 3.498456	-7.425962	 3.449439	 7.211707	 8.584361	-2.523310	-14.158780	-107.433100	 4.225183	 92.734990	 41.228730	 42.726030	-6.024764	 8.234947	-0.250113	 9.783407	 8.552014	 18.663290	 96.107910	 1.180726	 22.636010	-0.465119	-5.888547	 27.910740	 3.102760	 5.490115	 8.091328	-0.105970	 3.920651	-7.993691	-1.306167	 0.104236	-6.764794	-3.183445	 114.910000	 17.391920	-97.437050	 2.977015	 40.031990	-13.881100	-8.476622	-0.199280	-9.803968	 5.227319	 16.781600	-50.048270	-2.530582	 4.762556	 0.781134	 12.542040	 22.953220	-5.172670	-8.505616	 13.683420	-0.562208
-0.014845	 1.241011	-0.012942	 0.532993	-1.216699	 176.163400	-161.162300	 12.564710	-37.779730	 4.532591	-16.532720	 3.112023	-3.177126	 60.239520	 0.686113	 1.151106	 26.541570	-2.655342	 168.830600	 8.137148	 36.852140	-2.292097	-27.828660	 9.960661	 20.808620	 77.107040	-17.203310	-1.338489	 29.019650	 2.731759	 2.608603	 5.764976	-6.164782	-6.980674	 3.496484	 6.665150	 8.372959	-2.648112	-13.381050	-108.116800	 4.515176	 92.739780	 45.009860	 38.232240	-7.449863	 9.945925	-0.244055	 15.071140	 9.472919	 20.496410	 85.745600	 0.782661	 15.079520	-0.338267	-5.870135	 20.097480	 2.222715	 5.223438	 1.830116	-0.216891	 3.848344	-7.864811	-1.046613	-0.174879	-6.671547	-2.037930	 116.258300	 16.243120	-97.271950	 2.101706	 40.107960	-11.399600	-10.379000	-0.201908	-15.091720	 3.919893	 22.742200	-48.014630	-2.376619	 4.237993	 0.894757	 12.478170	 22.043400	-4.954173	-8.497296	 12.729140	-0.501961
-0.009400	 1.241386	-0.008204	 0.520855	-0.908976	 175.222800	-161.076100	 11.501300	-38.575750	 4.133405	-15.149100	 2.177721	-4.881451	 59.326010	 2.327027	 1.151879	 26.552060	-2.655649	 169.114800	 8.346638	 36.079400	-2.304821	-27.959850	 9.556705	 18.161780	 77.139820	-15.045610	-1.335219	 28.977090	 2.730339	 3.586436	 5.337669	-13.605340	-6.331021	 3.388099	 6.124228	 8.052479	-2.651561	-12.817780	-108.694100	 4.717357	 92.739550	 45.782460	 36.527250	-8.269851	 11.539170	-0.243364	 19.708160	 10.323500	 22.956510	 79.124590	 0.727359	 13.702840	-0.333516	-5.880263	 18.703250	 2.070615	 5.172988	 0.674027	-0.240511	 3.760294	-7.836144	-0.866262	-0.329466	-6.566367	-1.451493	 117.060900	 15.465130	-97.153140	 1.812967	 39.486790	-10.522800	-12.016420	-0.202825	-19.727970	 2.926327	 23.808580	-46.063540	-2.380301	 4.276215	 0.898821	 12.482710	 22.110060	-4.970099	-8.497868	 12.791440	-0.505893
-0.004834	 1.241717	-0.002977	 0.528333	-0.586131	 174.257500	-161.090400	 10.483280	-39.387190	 3.753151	-13.813420	 1.200512	-6.468844	 58.436740	 3.966137	 1.152672	 26.562840	-2.655964	 169.373800	 8.573721	 35.278950	-2.315515	-28.069550	 9.149555	 15.408970	 77.062820	-12.773690	-1.331861	 28.933340	 2.728883	 4.435710	 4.833968	-20.248710	-5.660633	 3.258759	 5.497187	 7.709661	-2.648433	-12.197530	-109.287500	 4.925111	 92.741440	 46.183700	 35.323490	-9.063605	 13.131220	-0.243889	 24.259010	 11.837840	 24.280700	 71.258270	 0.670953	 12.287720	-0.330076	-5.894630	 17.270120	 1.915244	 5.120640	-0.514200	-0.265847	 3.669730	-7.806974	-0.680903	-0.489529	-6.457404	-0.838166	 117.884600	 14.667240	-97.019740	 1.389197	 38.689100	-9.497619	-13.613850	-0.203221	-24.277770	 2.039028	 24.577140	-43.287280	-2.384088	 4.315491	 0.903001	 12.487400	 22.178560	-4.986478	-8.498450	 12.855470	-0.509935
-0.001130	 1.241805	 0.002446	 0.547281	-0.250930	 173.203300	-161.117200	 9.560121	-40.288190	 3.448925	-12.733100	 0.116190	-8.217629	 57.676280	 5.804725	 1.153546	 26.574700	-2.656311	 169.595200	 8.836938	 34.386210	-2.332206	-28.240510	 8.706936	 12.539350	 76.934440	-10.353930	-1.328170	 28.885200	 2.727285	 5.159359	 4.277723	-25.966510	-5.077853	 3.211853	 4.899984	 7.379123	-2.704920	-11.466560	-109.940800	 5.153681	 92.745990	 46.326700	 34.477770	-9.925461	 14.792920	-0.245235	 28.957280	 14.150390	 24.319260	 61.710490	 0.609307	 10.730430	-0.327950	-5.914982	 15.693060	 1.745155	 5.062400	-1.821758	-0.294997	 3.569966	-7.775207	-0.476890	-0.667159	-6.336668	-0.150465	 118.789800	 13.791460	-96.859870	 0.688673	 37.871970	-8.213579	-15.260820	-0.203372	-28.974720	 1.187020	 24.738430	-39.031370	-2.388259	 4.358711	 0.907603	 12.492580	 22.253930	-5.004519	-8.499085	 12.925920	-0.514382
 0.000958	 1.241389	 0.006500	 0.563707	 0.027219	 172.226600	-161.019300	 9.019043	-41.154830	 3.376384	-12.474040	-0.896605	-10.099800	 57.366120	 7.683183	 1.154365	 26.585820	-2.656636	 169.712500	 9.095097	 33.535620	-2.361848	-28.543090	 8.292545	 10.152100	 76.868290	-8.261229	-1.324713	 28.840080	 2.725791	 5.636194	 3.828070	-29.460670	-4.851998	 3.351363	 4.607376	 7.186956	-2.867058	-10.735360	-110.553200	 5.367861	 92.752660	 46.278190	 34.058060	-10.724360	 16.225800	-0.246170	 33.012520	 16.826570	 23.085120	 52.360890	 0.551866	 9.271246	-0.327507	-5.938300	 14.215430	 1.586391	 5.007168	-3.047021	-0.323546	 3.476363	-7.745754	-0.285636	-0.835135	-6.222960	 0.506464	 119.637400	 12.973090	-96.697700	-0.215038	 37.435390	-6.889065	-16.684510	-0.203446	-33.028820	 0.413421	 23.955470	-33.624410	-2.392171	 4.399221	 0.911920	 12.497460	 22.324580	-5.021443	-8.499676	 12.991960	-0.518551
 0.001858	 1.240620	 0.008858	 0.670478	 0.171797	 171.903400	-160.746600	 9.058293	-41.426490	 3.501138	-12.919190	-0.793517	-10.198370	 57.514460	 7.610631	 1.155431	 26.600240	-2.657057	 169.824300	 9.212945	 33.214360	-2.389347	-28.822330	 8.094546	 9.219169	 76.881480	-7.414170	-1.319651	 28.774040	 2.723610	 5.815215	 3.662812	-31.087660	-4.321069	 3.327079	 4.185789	 6.761663	-2.842652	-9.923202	-111.055400	 5.567732	 92.775220	 46.035900	 33.874430	-11.038150	 17.663990	-0.246485	 37.107930	 16.784020	 21.641630	 43.076110	 0.534719	 8.723447	-0.330905	-5.948109	 13.660410	 1.526859	 4.986556	-3.500470	-0.334421	 3.412702	-7.642654	-0.100630	-0.947238	-6.104671	 0.879512	 120.343000	 12.413190	-96.613250	-1.118852	 37.431020	-6.016210	-18.131450	-0.203805	-37.123210	 0.428317	 20.491630	-27.213890	-2.387547	 4.463133	 0.911871	 12.503540	 22.412080	-5.042420	-8.499899	 13.016930	-0.520127
 0.001460	 1.239460	 0.010046	 0.816932	 0.234599	 171.950200	-160.359300	 9.542015	-41.380220	 3.809023	-14.010710	-0.145295	-9.500953	 58.071230	 6.675116	 1.156436	 26.613820	-2.657452	 169.868400	 9.276691	 33.208660	-2.422160	-29.153250	 8.028413	 9.246115	 76.975070	-7.378335	-1.314676	 28.709060	 2.721472	 5.781311	 3.774023	-30.580740	-3.779479	 3.194309	 3.780276	 6.308278	-2.719681	-9.179669	-111.418700	 5.726557	 92.801800	 45.707010	 34.133870	-11.108670	 18.779940	-0.246854	 40.272640	 15.557700	 19.902880	 35.246600	 0.539952	 8.710884	-0.335096	-5.948349	 13.647260	 1.525447	 4.986469	-3.502366	-0.334467	 3.374157	-7.521325	 0.049910	-1.012772	-6.003114	 1.058222	 120.859500	 12.073280	-96.582120	-2.066635	 37.791160	-5.400691	-19.252080	-0.204118	-40.287320	 0.802669	 15.895510	-21.128110	-2.379560	 4.527535	 0.909702	 12.509200	 22.492890	-5.061810	-8.499906	 13.017720	-0.520177
 0.000195	 1.237858	 0.010814	 0.976043	 0.292950	 172.000900	-159.879300	 10.206690	-41.350610	 4.246931	-15.544610	 0.536709	-8.909170	 58.875870	 5.803772	 1.157475	 26.627850	-2.657861	 169.853900	 9.357444	 33.200260	-2.467841	-29.610730	 7.955090	 9.443306	 77.129430	-7.442399	-1.309542	 28.641930	 2.719271	 5.619197	 4.059293	-28.207350	-3.387068	 3.106673	 3.484611	 5.894824	-2.623710	-8.358325	-111.794300	 5.890500	 92.830350	 45.289420	 34.710530	-11.189170	 19.764720	-0.247209	 43.055480	 14.572530	 17.415170	 26.963820	 0.545358	 8.697902	-0.339424	-5.948597	 13.633680	 1.523989	 4.986380	-3.504325	-0.334514	 3.334003	-7.396064	 0.205499	-1.080551	-5.897140	 1.255964	 121.392800	 11.722300	-96.546680	-3.249620	 38.396080	-4.649773	-20.237470	-0.204286	-43.069280	 1.064837	 10.505670	-14.202390	-2.371305	 4.594079	 0.907451	 12.515070	 22.576380	-5.081866	-8.499913	 13.018540	-0.520228
-0.001529	 1.236152	 0.011220	 1.140139	 0.346339	 172.053800	-159.398800	 10.874120	-41.324660	 4.702107	-17.114290	 1.219747	-8.316497	 59.715570	 4.938307	 1.158530	 26.642110	-2.658277	 169.821700	 9.422225	 33.188290	-2.514895	-30.077670	 7.880857	 9.715663	 77.290440	-7.549506	-1.304330	 28.573710	 2.717043	 5.303951	 4.499246	-24.052230	-3.080240	 3.064966	 3.262333	 5.495873	-2.550897	-7.469509	-112.176200	 6.056901	 92.860460	 44.800930	 35.412140	-11.239750	 20.576150	-0.247580	 45.341560	 13.775880	 14.534280	 18.374750	 0.550850	 8.684711	-0.343822	-5.948851	 13.619880	 1.522507	 4.986288	-3.506316	-0.334562	 3.292859	-7.268888	 0.363657	-1.149454	-5.789014	 1.470346	 121.934300	 11.365970	-96.507310	-4.512454	 39.061450	-3.836751	-21.047100	-0.204272	-45.354610	 1.100960	 4.759494	-6.863842	-2.362913	 4.661701	 0.905153	 12.521080	 22.661220	-5.102269	-8.499921	 13.019370	-0.520279
